<!DOCTYPE svg PUBLIC "-//W3C//DTD SVG 1.1//EN" "http://www.w3.org/Graphics/SVG/1.1/DTD/svg11.dtd">
<!-- Uploaded to: SVG Repo, www.svgrepo.com, Transformed by: SVG Repo Mixer Tools -->
<svg height="114px" width="114px" version="1.1" id="Capa_1" xmlns="http://www.w3.org/2000/svg" xmlns:xlink="http://www.w3.org/1999/xlink" viewBox="0 0 433 433" xml:space="preserve" fill="#000000">
<g id="SVGRepo_bgCarrier" stroke-width="0"/>
<g id="SVGRepo_tracerCarrier" stroke-linecap="round" stroke-linejoin="round"/>
<g id="SVGRepo_iconCarrier"> <path style="fill:#BAB388;" d="M233.6,171.41c14.76,0,26.72,11.96,26.72,26.72c0,14.76-11.96,26.72-26.72,26.72 c-14.76,0-26.72-11.96-26.72-26.72C206.88,183.37,218.84,171.41,233.6,171.41z"/> <polygon style="fill:#E59683;" points="336.74,302.78 336.74,376.26 249.18,376.26 203.28,305.11 282.59,242.66 "/> <polygon style="fill:#E2BAB5;" points="203.28,305.11 249.18,376.26 96.26,376.26 96.26,316.14 160.12,238.21 "/> <path style="fill:#a2a1de;" d="M336.74,142.46v160.32l-54.15-60.12l-79.31,62.45l-43.16-66.9l-63.86,77.93V142.46H336.74z M260.32,198.13c0-14.76-11.96-26.72-26.72-26.72c-14.76,0-26.72,11.96-26.72,26.72c0,14.76,11.96,26.72,26.72,26.72 C248.36,224.85,260.32,212.89,260.32,198.13z"/> <polygon style="fill:#A8A69A;" points="389.7,93.47 296.21,93.47 296.21,0 "/> <path style="fill:#E2E0D0;" d="M389.7,93.47V433H43.3V0h252.91v93.47H389.7z M336.74,376.26v-73.48V142.46H96.26v173.68v60.12 h152.92H336.74z"/> </g>
</svg>