<svg width="48" height="45" viewBox="0 0 48 45" fill="none" xmlns="http://www.w3.org/2000/svg">
<path d="M5 40V5C5 5 5 5.92708 5 7.78125C5 9.63542 5 12.0417 5 15V30C5 32.9583 5 35.3646 5 37.2188C5 39.0729 5 40 5 40ZM5 45C3.625 45 2.44792 44.5104 1.46875 43.5312C0.489583 42.5521 0 41.375 0 40V5C0 3.625 0.489583 2.44792 1.46875 1.46875C2.44792 0.489583 3.625 0 5 0H40C41.375 0 42.5521 0.489583 43.5312 1.46875C44.5104 2.44792 45 3.625 45 5V11.25H40V5H5V40H40V33.75H45V40C45 41.375 44.5104 42.5521 43.5312 43.5312C42.5521 44.5104 41.375 45 40 45H5ZM25 35C23.625 35 22.4479 34.5104 21.4688 33.5312C20.4896 32.5521 20 31.375 20 30V15C20 13.625 20.4896 12.4479 21.4688 11.4688C22.4479 10.4896 23.625 10 25 10H42.5C43.875 10 45.0521 10.4896 46.0312 11.4688C47.0104 12.4479 47.5 13.625 47.5 15V30C47.5 31.375 47.0104 32.5521 46.0312 33.5312C45.0521 34.5104 43.875 35 42.5 35H25ZM42.5 30V15H25V30H42.5ZM32.5 26.25C33.5417 26.25 34.4271 25.8854 35.1562 25.1562C35.8854 24.4271 36.25 23.5417 36.25 22.5C36.25 21.4583 35.8854 20.5729 35.1562 19.8438C34.4271 19.1146 33.5417 18.75 32.5 18.75C31.4583 18.75 30.5729 19.1146 29.8438 19.8438C29.1146 20.5729 28.75 21.4583 28.75 22.5C28.75 23.5417 29.1146 24.4271 29.8438 25.1562C30.5729 25.8854 31.4583 26.25 32.5 26.25Z" fill="#4648D4"/>
</svg>
