<svg width="24" height="24" viewBox="0 0 24 24" fill="none" xmlns="http://www.w3.org/2000/svg">
<g clip-path="url(#clip0_61_2227)">
<path d="M17.05 20.2801C16.09 21.2301 15.01 22.0001 13.92 22.0001C12.86 22.0001 12.5 21.3601 11.26 21.3601C10.01 21.3601 9.61 21.9801 8.63 22.0001C7.51 22.0201 6.32 21.1001 5.36 20.1501C3.41 18.2301 2 15.3401 2 12.3001C2 7.64011 5.03 5.19011 7.91 5.19011C9.42 5.19011 10.75 6.13011 11.66 6.13011C12.58 6.13011 14.07 5.03011 15.85 5.03011C17.5 5.03011 18.95 5.63011 19.94 6.61011C16.87 8.44011 17.36 12.7401 20.37 13.9801C19.21 16.9201 17.69 19.5901 17.05 20.3801V20.2801ZM12.03 5.07011C12.05 1.97011 14.58 0.000107756 14.58 0.000107756C11.54 -0.149892 9.36 2.18011 9.36 2.18011C9.34 5.30011 12.03 7.20011 12.03 7.20011V5.07011Z" fill="#191C1E"/>
</g>
<defs>
<clipPath id="clip0_61_2227">
<rect width="24" height="24" fill="white"/>
</clipPath>
</defs>
</svg>
