<svg width="28" height="28" viewBox="0 0 28 28" fill="none" xmlns="http://www.w3.org/2000/svg">
<path d="M9.09992 2.33301H18.8999C22.6333 2.33301 25.6666 5.36634 25.6666 9.09968V18.8997C25.6666 20.6943 24.9537 22.4154 23.6847 23.6844C22.4157 24.9534 20.6946 25.6663 18.8999 25.6663H9.09992C5.36659 25.6663 2.33325 22.633 2.33325 18.8997V9.09968C2.33325 7.30504 3.04617 5.58391 4.31516 4.31492C5.58416 3.04592 7.30529 2.33301 9.09992 2.33301ZM8.86659 4.66634C7.75268 4.66634 6.68439 5.10884 5.89674 5.89649C5.10908 6.68415 4.66659 7.75243 4.66659 8.86634V19.133C4.66659 21.4547 6.54492 23.333 8.86659 23.333H19.1333C20.2472 23.333 21.3155 22.8905 22.1031 22.1029C22.8908 21.3152 23.3333 20.2469 23.3333 19.133V8.86634C23.3333 6.54467 21.4549 4.66634 19.1333 4.66634H8.86659ZM20.1249 6.41634C20.5117 6.41634 20.8826 6.56999 21.1561 6.84348C21.4296 7.11697 21.5833 7.4879 21.5833 7.87467C21.5833 8.26145 21.4296 8.63238 21.1561 8.90587C20.8826 9.17936 20.5117 9.33301 20.1249 9.33301C19.7381 9.33301 19.3672 9.17936 19.0937 8.90587C18.8202 8.63238 18.6666 8.26145 18.6666 7.87467C18.6666 7.4879 18.8202 7.11697 19.0937 6.84348C19.3672 6.56999 19.7381 6.41634 20.1249 6.41634ZM13.9999 8.16634C15.547 8.16634 17.0307 8.78092 18.1247 9.87489C19.2187 10.9688 19.8333 12.4526 19.8333 13.9997C19.8333 15.5468 19.2187 17.0305 18.1247 18.1245C17.0307 19.2184 15.547 19.833 13.9999 19.833C12.4528 19.833 10.9691 19.2184 9.87513 18.1245C8.78117 17.0305 8.16659 15.5468 8.16659 13.9997C8.16659 12.4526 8.78117 10.9688 9.87513 9.87489C10.9691 8.78092 12.4528 8.16634 13.9999 8.16634ZM13.9999 10.4997C13.0717 10.4997 12.1814 10.8684 11.525 11.5248C10.8687 12.1812 10.4999 13.0714 10.4999 13.9997C10.4999 14.9279 10.8687 15.8182 11.525 16.4745C12.1814 17.1309 13.0717 17.4997 13.9999 17.4997C14.9282 17.4997 15.8184 17.1309 16.4748 16.4745C17.1312 15.8182 17.4999 14.9279 17.4999 13.9997C17.4999 13.0714 17.1312 12.1812 16.4748 11.5248C15.8184 10.8684 14.9282 10.4997 13.9999 10.4997Z" fill="#76777D"/>
</svg>
